<svg width="96" height="96" viewBox="0 0 96 96" fill="none" xmlns="http://www.w3.org/2000/svg">
<rect width="96" height="96" rx="48" fill="#33CC99"/>
<g clip-path="url(#clip0_5_45)">
<path d="M56.85 29.25C51.1088 29.25 46.44 33.9187 46.44 39.66C46.44 40.005 46.5263 40.3425 46.56 40.68C39.4613 40.0012 33.1838 36.5813 28.9201 31.35C28.7213 31.0987 28.4138 30.9637 28.0913 30.9862C27.7726 31.0087 27.4876 31.1925 27.33 31.47C26.4338 33.0112 25.9201 34.785 25.9201 36.69C25.9201 38.9963 26.745 41.1075 28.0201 42.84C27.7726 42.7312 27.5026 42.6712 27.2701 42.54C26.9738 42.3825 26.6175 42.39 26.3288 42.5625C26.0401 42.735 25.8638 43.0462 25.86 43.38V43.5C25.86 47.0362 27.69 50.1075 30.39 51.99C30.36 51.9862 30.33 51.9975 30.3 51.99C29.97 51.9337 29.6363 52.05 29.4151 52.3012C29.1938 52.5525 29.1226 52.9012 29.22 53.22C30.2926 56.5537 33.0301 59.1 36.42 60.03C33.72 61.635 30.5888 62.58 27.2101 62.58C26.4788 62.58 25.7775 62.5425 25.08 62.46C24.63 62.4 24.1988 62.6625 24.0488 63.09C23.895 63.5175 24.0638 63.9937 24.45 64.23C28.7813 67.0087 33.9226 68.64 39.45 68.64C48.4088 68.64 55.4363 64.8975 60.15 59.55C64.8638 54.2025 67.32 47.2575 67.32 40.77C67.32 40.4962 67.2975 40.23 67.29 39.96C69.0488 38.6137 70.62 37.035 71.85 35.19C72.0938 34.8337 72.0675 34.3575 71.7863 34.0275C71.5088 33.6975 71.04 33.5962 70.65 33.78C70.155 34.0013 69.5775 34.0237 69.06 34.2C69.7425 33.2887 70.3275 32.3062 70.68 31.2C70.8 30.8212 70.6688 30.405 70.3575 30.1575C70.0463 29.9137 69.6113 29.8838 69.27 30.09C67.6313 31.0613 65.8163 31.7437 63.9 32.16C62.04 30.42 59.5913 29.25 56.85 29.25ZM56.85 31.17C59.2988 31.17 61.5113 32.2162 63.06 33.87C63.2925 34.11 63.6338 34.2113 63.96 34.14C65.2125 33.8925 66.4013 33.5288 67.56 33.06C66.8925 33.96 66.0675 34.7287 65.1 35.31C64.6613 35.5237 64.455 36.03 64.6163 36.4912C64.7738 36.9487 65.2538 37.215 65.73 37.11C66.69 36.9937 67.545 36.6037 68.46 36.36C67.6388 37.2487 66.7388 38.0513 65.76 38.76C65.4938 38.955 65.3475 39.27 65.37 39.6C65.385 39.99 65.4 40.3762 65.4 40.77C65.4 46.77 63.0975 53.2837 58.71 58.26C54.3225 63.2362 47.88 66.72 39.45 66.72C35.6213 66.72 32.0063 65.8725 28.74 64.38C32.7901 64.0687 36.525 62.6362 39.54 60.27C39.855 60.0187 39.9788 59.5987 39.8513 59.2162C39.7238 58.8337 39.3713 58.5712 38.97 58.56C35.805 58.5037 33.1538 56.6625 31.74 54.06C31.7925 54.06 31.8376 54.06 31.89 54.06C32.8388 54.06 33.7763 53.94 34.65 53.7C35.07 53.5762 35.3588 53.1862 35.3438 52.7475C35.3288 52.3087 35.0175 51.9337 34.59 51.84C31.1738 51.15 28.6125 48.3675 28.0201 44.91C28.9875 45.2437 29.9775 45.5062 31.05 45.54C31.4888 45.5662 31.8863 45.2925 32.0213 44.8762C32.1563 44.46 31.9913 44.0025 31.62 43.77C29.34 42.2437 27.84 39.645 27.84 36.69C27.84 35.595 28.1251 34.59 28.5001 33.63C33.3001 38.8987 40.02 42.3975 47.61 42.78C47.91 42.795 48.2025 42.6712 48.3975 42.4425C48.5925 42.21 48.6675 41.9025 48.6 41.61C48.4538 40.9875 48.36 40.3275 48.36 39.66C48.36 34.9575 52.1475 31.17 56.85 31.17Z" fill="white" fill-opacity="0.87"/>
</g>
<defs>
<clipPath id="clip0_5_45">
<rect width="48" height="48" fill="white" transform="translate(24 24)"/>
</clipPath>
</defs>
</svg>
